<svg width="80" height="51" viewBox="0 0 80 51" fill="none" xmlns="http://www.w3.org/2000/svg">
<g clip-path="url(#clip0_4_12)">
<path d="M33.8779 27.3806H32.3427V25.626H33.8779V27.3806ZM33.8779 36.3727H32.3427V29.7931L33.8779 28.2579V36.3727ZM43.5271 28.6965L42.1893 30.0124H38.4828V35.0568H43.0885V36.3727H38.4828C38.0588 36.3727 37.6932 36.2265 37.3862 35.934C37.0938 35.627 36.9475 35.2615 36.9475 34.8374V30.2317C36.9475 29.8077 37.0938 29.4495 37.3862 29.1571C37.6932 28.85 38.0588 28.6965 38.4828 28.6965H43.5271ZM50.1092 36.3727H47.0388C46.6148 36.3727 46.2492 36.2265 45.9422 35.934C45.6498 35.627 45.5035 35.2615 45.5035 34.8374V30.0124H43.3104L44.6263 28.6965H45.5035V27.1613L47.0388 25.626V28.6965H50.1092V30.0124H47.0388V35.0568H50.1092V36.3727ZM59.9803 34.8374C59.9803 35.2615 59.8268 35.627 59.5197 35.934C59.2273 36.2265 58.8691 36.3727 58.4451 36.3727H53.8394C53.4154 36.3727 53.0498 36.2265 52.7428 35.934C52.4504 35.627 52.3041 35.2615 52.3041 34.8374V30.2317C52.3041 29.8077 52.4504 29.4495 52.7428 29.1571C53.0498 28.85 53.4154 28.6965 53.8394 28.6965H58.4451C58.8691 28.6965 59.2273 28.85 59.5197 29.1571C59.8268 29.4495 59.9803 29.8077 59.9803 30.2317V34.8374ZM58.4451 35.0568V30.0124H53.8394V35.0568H58.4451ZM69.1968 31.767H67.6616V30.0124H64.5911V36.3727H63.0559V28.6965H64.5911V29.7931L65.6877 28.6965H67.6616C68.0856 28.6965 68.4439 28.85 68.7363 29.1571C69.0433 29.4495 69.1968 29.8077 69.1968 30.2317V31.767ZM79.2778 39.4431C79.2778 39.8672 79.1243 40.2254 78.8172 40.5178C78.5248 40.8248 78.1666 40.9784 77.7426 40.9784H71.3823L72.6982 39.6625H77.7426V35.2761L76.646 36.3727H73.1369C72.7129 36.3727 72.3473 36.2265 72.0403 35.934C71.7479 35.627 71.6016 35.2615 71.6016 34.8374V28.6965H73.1369V35.0568H77.7426V28.6965H79.2778V39.4431Z" fill="black"/>
<path d="M30.1118 16.8944C28.9855 19.2132 27.6605 21.5652 26.1366 23.9503C24.6128 26.2691 23.0228 28.3561 21.3665 30.2112C21.3002 30.3437 21.1346 30.5756 20.8696 30.9068C20.6046 31.1718 20.3727 31.2712 20.1739 31.205C20.0414 31.0725 20.0083 30.8406 20.0745 30.5093C20.1408 30.178 20.207 29.913 20.2733 29.7143C20.6046 28.6542 21.1015 27.2629 21.764 25.5404C22.4265 23.8178 23.1222 22.4265 23.8509 21.3665C24.0497 21.0352 24.4472 20.1077 25.0435 18.5838C25.706 17.06 26.3354 15.3706 26.9317 13.5155C27.528 11.5942 27.9917 9.73912 28.323 7.9503C28.6542 6.16148 28.6211 4.83643 28.2236 3.97515C28.2236 3.97515 28.2236 3.87577 28.2236 3.67701V3.57763C28.4886 3.57763 28.6874 3.71014 28.8199 3.97515C29.5487 4.83643 30.0787 5.83022 30.4099 6.95651C30.8075 8.08281 31.0393 9.24223 31.1056 10.4348C31.1718 11.6273 31.1056 12.8199 30.9068 14.0124C30.7743 15.1387 30.5093 16.0994 30.1118 16.8944ZM33.3913 10.7329C34.1201 12.1242 34.3188 13.8137 33.9876 15.8012C33.7226 17.7226 33.1925 19.7101 32.3975 21.764C31.6687 23.8178 30.8075 25.7723 29.8137 27.6273C28.8861 29.4161 28.1242 30.8737 27.528 32C26.5342 33.9213 25.3085 35.8758 23.8509 37.8633C22.4596 39.7847 21.1677 41.5072 19.9752 43.0311C19.6439 43.4948 19.3458 43.7267 19.0807 43.7267C18.9482 43.5942 18.882 43.4286 18.882 43.2298C18.9482 43.0311 19.0145 42.8323 19.0807 42.6335C20.1408 39.1884 21.4658 36.0083 23.0559 33.0932C24.646 30.1118 26.3023 27.0311 28.0248 23.8509C29.1511 21.8633 30.1449 19.8426 31.0062 17.7888C31.9337 15.6687 32.5631 13.3499 32.8944 10.8323C32.8944 10.501 32.9275 10.3354 32.9938 10.3354C33.1925 10.3354 33.3251 10.4679 33.3913 10.7329ZM12.2236 14.0124C12.2236 16.4638 12.0248 19.1139 11.6273 21.9627C11.2961 24.8116 10.9317 27.2629 10.5342 29.3168C10.5342 29.4493 10.4679 29.6812 10.3354 30.0124C10.2692 30.3437 10.1035 30.5424 9.83851 30.6087C9.706 30.6087 9.5735 30.4431 9.44099 30.1118C9.37474 29.7805 9.30849 29.5486 9.24224 29.4161C9.10973 28.8861 8.97723 28.2567 8.84472 27.5279C8.77847 26.7329 8.71222 25.9379 8.64596 25.1429C8.57971 24.3478 8.51346 23.5528 8.44721 22.7578C8.44721 21.9627 8.48033 21.2671 8.54658 20.6708C8.61284 20.2733 8.57971 19.2795 8.44721 17.6894C8.3147 16.0994 8.11594 14.3768 7.85093 12.5217C7.58592 10.6667 7.22153 8.91097 6.75776 7.25465C6.294 5.53208 5.73085 4.33954 5.06832 3.67701C4.93582 3.54451 4.83644 3.412 4.77019 3.2795C4.77019 3.08074 4.80331 2.98136 4.86957 2.98136C5.00207 2.98136 5.13458 3.01449 5.26708 3.08074C5.46584 3.14699 5.63147 3.21324 5.76398 3.2795C6.69151 3.67701 7.5528 4.30641 8.34783 5.16769C9.14286 6.02898 9.80538 6.98964 10.3354 8.04968C10.9317 9.04347 11.3954 10.0704 11.7267 11.1304C12.058 12.1905 12.2236 13.1511 12.2236 14.0124ZM17.7888 48.1988C17.7888 48.4638 17.7226 48.5963 17.5901 48.5963C17.5238 48.5963 17.3913 48.53 17.1925 48.3975C17.06 48.3313 16.9275 48.265 16.795 48.1988C16.265 47.8012 15.8675 47.2381 15.6025 46.5093C15.4037 45.7805 15.3706 44.6874 15.5031 43.2298C15.5031 42.6335 15.5694 41.971 15.7019 41.2422C15.8344 40.5135 16 39.8509 16.1988 39.2547C16.3975 38.5921 16.5963 38.0952 16.795 37.764C16.9938 37.3665 17.1925 37.2008 17.3913 37.2671C17.7226 37.3996 17.8551 37.8302 17.7888 38.559C17.7888 39.2215 17.7888 39.7184 17.7888 40.0497C17.7226 41.7723 17.6894 43.3292 17.6894 44.7205C17.6894 46.1118 17.7226 47.2712 17.7888 48.1988ZM12.1242 43.1304C11.793 42.7329 11.4948 42.2029 11.2298 41.5404C10.9648 40.8778 10.7329 40.2484 10.5342 39.6522C10.3354 38.9896 10.2029 38.4265 10.1366 37.9627C10.1366 37.499 10.236 37.2339 10.4348 37.1677C10.766 37.1014 11.0642 37.3002 11.3292 37.764C11.6605 38.1615 11.9255 38.559 12.1242 38.9565C12.058 37.5652 12.1242 36.1739 12.323 34.7826C12.588 33.325 12.7868 32 12.9193 30.8074C13.118 29.0849 13.2836 27.5611 13.4161 26.236C13.5487 24.8447 13.648 23.1884 13.7143 21.2671C13.8468 19.2132 13.8468 16.9607 13.7143 14.5093C13.5818 12.058 13.0518 9.67287 12.1242 7.35403C12.058 7.15527 12.0911 7.05589 12.2236 7.05589C12.3561 7.05589 12.4555 7.08902 12.5217 7.15527C12.588 7.22152 12.6874 7.28778 12.8199 7.35403C13.6812 8.01656 14.3768 8.94409 14.9068 10.1366C15.5031 11.2629 15.9337 12.5549 16.1988 14.0124C16.53 15.4037 16.7288 16.8944 16.795 18.4845C16.9275 20.0083 16.9938 21.4658 16.9938 22.8571C17.9876 21.0683 19.0145 19.3126 20.0745 17.5901C21.1346 15.8012 22.0621 14.0455 22.8571 12.323C23.6522 10.5342 24.2816 8.81159 24.7453 7.15527C25.2091 5.43271 25.4079 3.74326 25.3416 2.08695C25.3416 1.82194 25.3747 1.65631 25.441 1.59006C25.5072 1.59006 25.6398 1.75569 25.8385 2.08695C26.766 4.27328 27.0642 6.49275 26.7329 8.74534C26.4017 10.9317 25.706 13.1511 24.646 15.4037C23.6522 17.5901 22.4596 19.8095 21.0683 22.0621C19.677 24.2484 18.4513 26.4348 17.3913 28.6211C16.0663 31.4037 15.1056 34.4513 14.5093 37.764C13.9793 41.0766 14.1781 44.5549 15.1056 48.1988V48.2981C15.0393 48.3644 15.0062 48.3975 15.0062 48.3975C14.8737 48.3975 14.7743 48.3644 14.7081 48.2981C14.6418 48.2981 14.6087 48.265 14.6087 48.1988C14.4099 47.9337 14.1781 47.6687 13.913 47.4037C13.648 47.1387 13.2836 46.8737 12.8199 46.6087C10.8986 45.6149 9.30849 44.4555 8.04969 43.1304C6.79089 41.8054 5.7971 40.3809 5.06832 38.8571C4.4058 37.3333 3.9089 35.7433 3.57764 34.087C3.31263 32.4306 3.18012 30.7743 3.18012 29.118C3.11387 26.7329 3.147 24.3478 3.2795 21.9627C3.47826 19.5114 3.57764 17.1594 3.57764 14.9068C3.64389 12.6542 3.54451 10.501 3.2795 8.4472C3.01449 6.32712 2.45135 4.40579 1.59006 2.68322C1.59006 2.55072 1.59006 2.48447 1.59006 2.48447C1.72257 2.35196 1.85507 2.31883 1.98758 2.38509C2.12008 2.45134 2.21946 2.51759 2.28571 2.58384C4.00828 4.17391 5.1677 6.02898 5.76398 8.14906C6.36025 10.2691 6.69151 12.5217 6.75776 14.9068C6.82402 17.2919 6.72464 19.7433 6.45963 22.2609C6.19462 24.7785 6.09524 27.2629 6.16149 29.7143C6.22774 31.1718 6.39337 32.6625 6.65839 34.1863C6.9234 35.7101 7.35404 37.2008 7.95031 38.6584C8.54658 40.0497 9.30849 41.4079 10.236 42.7329C11.2298 44.058 12.3892 45.2505 13.7143 46.3106C13.4493 45.648 13.2505 45.1843 13.118 44.9193C12.9855 44.588 12.6542 43.9917 12.1242 43.1304Z" fill="#155BD5"/>
<path d="M36.8199 48.7453H36.0248V48.1491L35.4286 48.7453H33.3416C33.1561 48.7453 32.9938 48.6758 32.8547 48.5366C32.7155 48.3975 32.646 48.2352 32.646 48.0497V44.5714C32.646 44.3859 32.7155 44.2236 32.8547 44.0845C32.9938 43.9453 33.1561 43.8758 33.3416 43.8758H36.8199V44.5714H33.441V48.0497H36.0248V46.6584H34.7329L35.4286 45.9627H36.8199V48.7453Z" fill="black"/>
<path d="M45.1553 48.7453H41.677V43.8758H42.4721V48.0497H44.3603V47.354H45.1553V48.7453Z" fill="black"/>
<path d="M53.7826 48.0497C53.7826 48.2418 53.713 48.4075 53.5739 48.5466C53.4414 48.6791 53.2791 48.7453 53.087 48.7453H50.3043C50.1122 48.7453 49.9466 48.6791 49.8075 48.5466C49.675 48.4075 49.6087 48.2418 49.6087 48.0497V44.5714C49.6087 44.3793 49.675 44.217 49.8075 44.0845C49.9466 43.9453 50.1122 43.8758 50.3043 43.8758H53.087C53.2791 43.8758 53.4414 43.9453 53.5739 44.0845C53.713 44.217 53.7826 44.3793 53.7826 44.5714V48.0497ZM52.9876 48.0497V44.5714H50.4037V48.0497H52.9876Z" fill="black"/>
<path d="M62.8137 48.0497C62.8137 48.2418 62.7441 48.4075 62.605 48.5466C62.4725 48.6791 62.3101 48.7453 62.118 48.7453H58.6398V45.2671L59.3354 44.5714H58.6398V43.8758H61.4224C61.6145 43.8758 61.7768 43.9453 61.9093 44.0845C62.0485 44.217 62.118 44.3793 62.118 44.5714V45.9627H62.1379C62.33 45.9627 62.489 46.0323 62.6149 46.1714C62.7474 46.3039 62.8137 46.4663 62.8137 46.6584V48.0497ZM61.323 45.9627V44.5714H59.4348V46.559L60.0311 45.9627H61.323ZM62.0186 48.0497V46.6584H59.4348V48.0497H62.0186Z" fill="black"/>
<path d="M71.795 48.7453H71V47.354H68.4162V48.7453H67.6211V44.5714C67.6211 44.3793 67.6874 44.217 67.8199 44.0845C67.959 43.9453 68.1246 43.8758 68.3168 43.8758H71.795V48.7453ZM71 46.6584V44.5714H68.4162V47.2547L69.0124 46.6584H71Z" fill="black"/>
<path d="M80.0808 48.7453H76.6025V43.8758H77.3975V48.0497H79.2857V47.354H80.0808V48.7453Z" fill="black"/>
</g>
<defs>
<clipPath id="clip0_4_12">
<rect width="80" height="50.1863" fill="white"/>
</clipPath>
</defs>
</svg>
