<svg width="115" height="73" viewBox="0 0 115 73" fill="none" xmlns="http://www.w3.org/2000/svg">
<g clip-path="url(#clip0_4_2)">
<path d="M48.6995 40.3596H46.4926V37.8374H48.6995V40.3596ZM48.6995 53.2857H46.4926V43.8276L48.6995 41.6207V53.2857ZM62.5702 42.2512L60.6471 44.1429H55.319V51.3941H61.9397V53.2857H55.319C54.7094 53.2857 54.184 53.0755 53.7426 52.6552C53.3223 52.2138 53.1121 51.6883 53.1121 51.0788V44.4581C53.1121 43.8486 53.3223 43.3337 53.7426 42.9133C54.184 42.4719 54.7094 42.2512 55.319 42.2512H62.5702ZM72.032 53.2857H67.6182C67.0087 53.2857 66.4833 53.0755 66.0419 52.6552C65.6215 52.2138 65.4113 51.6883 65.4113 51.0788V44.1429H62.2586L64.1503 42.2512H65.4113V40.0443L67.6182 37.8374V42.2512H72.032V44.1429H67.6182V51.3941H72.032V53.2857ZM86.2217 51.0788C86.2217 51.6883 86.001 52.2138 85.5596 52.6552C85.1393 53.0755 84.6243 53.2857 84.0148 53.2857H77.3941C76.7846 53.2857 76.2591 53.0755 75.8177 52.6552C75.3974 52.2138 75.1872 51.6883 75.1872 51.0788V44.4581C75.1872 43.8486 75.3974 43.3337 75.8177 42.9133C76.2591 42.4719 76.7846 42.2512 77.3941 42.2512H84.0148C84.6243 42.2512 85.1393 42.4719 85.5596 42.9133C86.001 43.3337 86.2217 43.8486 86.2217 44.4581V51.0788ZM84.0148 51.3941V44.1429H77.3941V51.3941H84.0148ZM99.4705 46.665H97.2636V44.1429H92.8498V53.2857H90.6429V42.2512H92.8498V43.8276L94.4261 42.2512H97.2636C97.8731 42.2512 98.388 42.4719 98.8084 42.9133C99.2498 43.3337 99.4705 43.8486 99.4705 44.4581V46.665ZM113.962 57.6995C113.962 58.309 113.741 58.824 113.3 59.2443C112.879 59.6857 112.364 59.9064 111.755 59.9064H102.612L104.504 58.0148H111.755V51.7094L110.179 53.2857H105.134C104.525 53.2857 103.999 53.0755 103.558 52.6552C103.138 52.2138 102.927 51.6883 102.927 51.0788V42.2512H105.134V51.3941H111.755V42.2512H113.962V57.6995Z" fill="white"/>
<path d="M43.2857 24.2857C41.6667 27.619 39.7619 31 37.5714 34.4286C35.381 37.7619 33.0952 40.7619 30.7143 43.4286C30.6191 43.619 30.381 43.9524 30 44.4286C29.6191 44.8095 29.2857 44.9524 29 44.8571C28.8095 44.6667 28.7619 44.3333 28.8571 43.8571C28.9524 43.3809 29.0476 43 29.1429 42.7143C29.6191 41.1905 30.3333 39.1905 31.2857 36.7143C32.2381 34.2381 33.2381 32.2381 34.2857 30.7143C34.5714 30.2381 35.1429 28.9048 36 26.7143C36.9524 24.5238 37.8572 22.0952 38.7143 19.4286C39.5714 16.6667 40.2381 14 40.7143 11.4286C41.1905 8.85713 41.1429 6.95237 40.5714 5.71427C40.5714 5.71427 40.5714 5.57142 40.5714 5.2857V5.14284C40.9524 5.14284 41.2381 5.33332 41.4286 5.71427C42.4762 6.95237 43.2381 8.38094 43.7143 9.99999C44.2857 11.619 44.6191 13.2857 44.7143 15C44.8095 16.7143 44.7143 18.4286 44.4286 20.1428C44.2381 21.7619 43.8572 23.1428 43.2857 24.2857ZM48 15.4286C49.0476 17.4286 49.3333 19.8571 48.8572 22.7143C48.4762 25.4762 47.7143 28.3333 46.5714 31.2857C45.5238 34.2381 44.2857 37.0476 42.8572 39.7143C41.5238 42.2857 40.4286 44.3809 39.5714 46C38.1429 48.7619 36.381 51.5714 34.2857 54.4286C32.2857 57.1905 30.4286 59.6667 28.7143 61.8571C28.2381 62.5238 27.8095 62.8571 27.4286 62.8571C27.2381 62.6667 27.1429 62.4286 27.1429 62.1429C27.2381 61.8571 27.3333 61.5714 27.4286 61.2857C28.9524 56.3333 30.8571 51.7619 33.1429 47.5714C35.4286 43.2857 37.8095 38.8571 40.2857 34.2857C41.9048 31.4286 43.3333 28.5238 44.5714 25.5714C45.9048 22.5238 46.8095 19.1905 47.2857 15.5714C47.2857 15.0952 47.3333 14.8571 47.4286 14.8571C47.7143 14.8571 47.9048 15.0476 48 15.4286ZM17.5714 20.1428C17.5714 23.6667 17.2857 27.4762 16.7143 31.5714C16.2381 35.6667 15.7143 39.1905 15.1429 42.1429C15.1429 42.3333 15.0476 42.6667 14.8571 43.1429C14.7619 43.619 14.5238 43.9048 14.1429 44C13.9524 44 13.7619 43.7619 13.5714 43.2857C13.4762 42.8095 13.381 42.4762 13.2857 42.2857C13.0952 41.5238 12.9048 40.619 12.7143 39.5714C12.6191 38.4286 12.5238 37.2857 12.4286 36.1429C12.3333 35 12.2381 33.8571 12.1429 32.7143C12.1429 31.5714 12.1905 30.5714 12.2857 29.7143C12.381 29.1428 12.3333 27.7143 12.1429 25.4286C11.9524 23.1428 11.6667 20.6667 11.2857 18C10.9048 15.3333 10.381 12.8095 9.71429 10.4286C9.04762 7.95237 8.2381 6.23808 7.28572 5.2857C7.09524 5.09523 6.95238 4.90475 6.85714 4.71427C6.85714 4.42856 6.90476 4.2857 7 4.2857C7.19048 4.2857 7.38095 4.33332 7.57143 4.42856C7.85714 4.5238 8.09524 4.61904 8.28572 4.71427C9.61905 5.2857 10.8571 6.19046 12 7.42856C13.1429 8.66665 14.0952 10.0476 14.8571 11.5714C15.7143 13 16.381 14.4762 16.8571 16C17.3333 17.5238 17.5714 18.9048 17.5714 20.1428ZM25.5714 69.2857C25.5714 69.6667 25.4762 69.8571 25.2857 69.8571C25.1905 69.8571 25 69.7619 24.7143 69.5714C24.5238 69.4762 24.3333 69.381 24.1429 69.2857C23.381 68.7143 22.8095 67.9048 22.4286 66.8571C22.1429 65.8095 22.0952 64.2381 22.2857 62.1429C22.2857 61.2857 22.381 60.3333 22.5714 59.2857C22.7619 58.2381 23 57.2857 23.2857 56.4286C23.5714 55.4762 23.8571 54.7619 24.1429 54.2857C24.4286 53.7143 24.7143 53.4762 25 53.5714C25.4762 53.7619 25.6667 54.3809 25.5714 55.4286C25.5714 56.3809 25.5714 57.0952 25.5714 57.5714C25.4762 60.0476 25.4286 62.2857 25.4286 64.2857C25.4286 66.2857 25.4762 67.9524 25.5714 69.2857ZM17.4286 62C16.9524 61.4286 16.5238 60.6667 16.1429 59.7143C15.7619 58.7619 15.4286 57.8571 15.1429 57C14.8571 56.0476 14.6667 55.2381 14.5714 54.5714C14.5714 53.9048 14.7143 53.5238 15 53.4286C15.4762 53.3333 15.9048 53.619 16.2857 54.2857C16.7619 54.8571 17.1429 55.4286 17.4286 56C17.3333 54 17.4286 52 17.7143 50C18.0952 47.9048 18.381 46 18.5714 44.2857C18.8571 41.8095 19.0952 39.619 19.2857 37.7143C19.4762 35.7143 19.6191 33.3333 19.7143 30.5714C19.9048 27.619 19.9048 24.3809 19.7143 20.8571C19.5238 17.3333 18.7619 13.9048 17.4286 10.5714C17.3333 10.2857 17.381 10.1428 17.5714 10.1428C17.7619 10.1428 17.9048 10.1905 18 10.2857C18.0952 10.3809 18.2381 10.4762 18.4286 10.5714C19.6667 11.5238 20.6667 12.8571 21.4286 14.5714C22.2857 16.1905 22.9048 18.0476 23.2857 20.1428C23.7619 22.1428 24.0476 24.2857 24.1429 26.5714C24.3333 28.7619 24.4286 30.8571 24.4286 32.8571C25.8571 30.2857 27.3333 27.7619 28.8571 25.2857C30.381 22.7143 31.7143 20.1905 32.8571 17.7143C34 15.1428 34.9048 12.6667 35.5714 10.2857C36.2381 7.80951 36.5238 5.38094 36.4286 2.99999C36.4286 2.61903 36.4762 2.38094 36.5714 2.2857C36.6667 2.2857 36.8571 2.5238 37.1429 2.99999C38.4762 6.14284 38.9048 9.33332 38.4286 12.5714C37.9524 15.7143 36.9524 18.9048 35.4286 22.1428C34 25.2857 32.2857 28.4762 30.2857 31.7143C28.2857 34.8571 26.5238 38 25 41.1429C23.0952 45.1429 21.7143 49.5238 20.8571 54.2857C20.0952 59.0476 20.381 64.0476 21.7143 69.2857V69.4286C21.6191 69.5238 21.5714 69.5714 21.5714 69.5714C21.381 69.5714 21.2381 69.5238 21.1429 69.4286C21.0476 69.4286 21 69.381 21 69.2857C20.7143 68.9048 20.381 68.5238 20 68.1429C19.6191 67.7619 19.0952 67.381 18.4286 67C15.6667 65.5714 13.381 63.9048 11.5714 62C9.76191 60.0952 8.33333 58.0476 7.28572 55.8571C6.33333 53.6667 5.61905 51.3809 5.14286 49C4.76191 46.619 4.57143 44.2381 4.57143 41.8571C4.47619 38.4286 4.52381 35 4.71429 31.5714C5 28.0476 5.14286 24.6667 5.14286 21.4286C5.2381 18.1905 5.09524 15.0952 4.71429 12.1428C4.33333 9.09523 3.52381 6.33332 2.28571 3.85713C2.28571 3.66665 2.28571 3.57142 2.28571 3.57142C2.47619 3.38094 2.66667 3.33332 2.85714 3.42856C3.04762 3.5238 3.19048 3.61904 3.28572 3.71427C5.76191 5.99999 7.42857 8.66665 8.28572 11.7143C9.14286 14.7619 9.61905 18 9.71429 21.4286C9.80953 24.8571 9.66667 28.3809 9.28572 32C8.90476 35.619 8.76191 39.1905 8.85714 42.7143C8.95238 44.8095 9.19048 46.9524 9.57143 49.1429C9.95238 51.3333 10.5714 53.4762 11.4286 55.5714C12.2857 57.5714 13.381 59.5238 14.7143 61.4286C16.1429 63.3333 17.8095 65.0476 19.7143 66.5714C19.3333 65.619 19.0476 64.9524 18.8571 64.5714C18.6667 64.0952 18.1905 63.2381 17.4286 62Z" fill="white"/>
<path d="M52.9286 69.5714H51.7857V68.7143L50.9286 69.5714H47.9286C47.6619 69.5714 47.4286 69.4714 47.2286 69.2714C47.0286 69.0714 46.9286 68.8381 46.9286 68.5714V63.5714C46.9286 63.3048 47.0286 63.0714 47.2286 62.8714C47.4286 62.6714 47.6619 62.5714 47.9286 62.5714H52.9286V63.5714H48.0714V68.5714H51.7857V66.5714H49.9286L50.9286 65.5714H52.9286V69.5714Z" fill="white"/>
<path d="M65.2857 69.5714H60.2857V62.5714H61.4286V68.5714H64.1429V67.5714H65.2857V69.5714Z" fill="white"/>
<path d="M77.5 68.5714C77.5 68.8476 77.4 69.0857 77.2 69.2857C77.0095 69.4762 76.7762 69.5714 76.5 69.5714H72.5C72.2238 69.5714 71.9857 69.4762 71.7857 69.2857C71.5952 69.0857 71.5 68.8476 71.5 68.5714V63.5714C71.5 63.2952 71.5952 63.0619 71.7857 62.8714C71.9857 62.6714 72.2238 62.5714 72.5 62.5714H76.5C76.7762 62.5714 77.0095 62.6714 77.2 62.8714C77.4 63.0619 77.5 63.2952 77.5 63.5714V68.5714ZM76.3571 68.5714V63.5714H72.6429V68.5714H76.3571Z" fill="white"/>
<path d="M90.8572 68.5714C90.8572 68.8476 90.7572 69.0857 90.5572 69.2857C90.3667 69.4762 90.1333 69.5714 89.8572 69.5714H84.8572V64.5714L85.8572 63.5714H84.8572V62.5714H88.8572C89.1333 62.5714 89.3667 62.6714 89.5572 62.8714C89.7572 63.0619 89.8572 63.2952 89.8572 63.5714V65.5714H89.8857C90.1619 65.5714 90.3905 65.6714 90.5714 65.8714C90.7619 66.0619 90.8572 66.2952 90.8572 66.5714V68.5714ZM88.7143 65.5714V63.5714H86V66.4286L86.8572 65.5714H88.7143ZM89.7143 68.5714V66.5714H86V68.5714H89.7143Z" fill="white"/>
<path d="M104.143 69.5714H103V67.5714H99.2857V69.5714H98.1429V63.5714C98.1429 63.2952 98.2381 63.0619 98.4286 62.8714C98.6286 62.6714 98.8667 62.5714 99.1429 62.5714H104.143V69.5714ZM103 66.5714V63.5714H99.2857V67.4286L100.143 66.5714H103Z" fill="white"/>
<path d="M116.429 69.5714H111.429V62.5714H112.571V68.5714H115.286V67.5714H116.429V69.5714Z" fill="white"/>
</g>
<defs>
<clipPath id="clip0_4_2">
<rect width="115" height="72.1429" fill="white"/>
</clipPath>
</defs>
</svg>
